<!DOCTYPE svg PUBLIC "-//W3C//DTD SVG 1.1//EN" "http://www.w3.org/Graphics/SVG/1.1/DTD/svg11.dtd">
                <svg xmlns="http://www.w3.org/2000/svg" xmlns:xlink="http://www.w3.org/1999/xlink" 
                width="872" height="1951" shape-rendering="optimizeSpeed">
                
                <g>
                   <rect x="50" y="65"
            width="443.4" height="30"
            rx="3" ry="3"
            style="fill:#90caf9; stroke:#444; stroke-width:1" />
                   <title>const patterns = [/click\(\s?\[?\s?(&quot;.+&quot;)\s?\]?.*\)/gm, /exists\(\s?\[?\s?(&quot;.+&quot;)\s?\]?.*\)/gm, /find\(\s?\[?\s?(&quot;.+&quot;)\s?\]?.*\)/gm, /type\(\s?\[?\s?(&quot;.+&quot;)\s?\]?.*&quot;.*&quot;.*\)/gm, /hover\(\s?\[?\s?(&quot;.+&quot;)\s?\]?.*\)/gm, /wait\(\s?\[?\s?(&quot;.+&quot;)\s?\]?.*\)/gm, /waitVanish\(\s?\[?\s?(&quot;.+&quot;)\s?\]?.*\)/gm, /onAppear\(\s?\[?\s?(&quot;.+&quot;)\s?\]?.*\)/gm, /onVanish\(\s?\[?\s?(&quot;.+&quot;)\s?\]?.*\)/gm, /findAll\(\s?\[?\s?(&quot;.+&quot;)\s?\]?.*\)/gm, /findBest\(\s?\[?\s?(&quot;.+&quot;)\s?\]?.*\)/gm, /findBestList\(\s?\[?\s?(&quot;.+&quot;)\s?\]?.*\)/gm, /findAny\(\s?\[?\s?(&quot;.+&quot;)\s?\]?.*\)/gm, /findAnyList\(\s?\[?\s?(&quot;.+&quot;)\s?\]?.*\)/gm, /doubleClick\(\s?\[?\s?(&quot;.+&quot;)\s?\]?.*\)/gm, /rightClick\(\s?\[?\s?(&quot;.+&quot;)\s?\]?.*\)/gm, /dragDrop\(\s?\[?\s?(&quot;.+&quot;)\s?\]?.*\)/gm, /drag\(\s?\[?\s?(&quot;.+&quot;)\s?\]?.*\)/gm, /dropAt\(\s?\[?\s?(&quot;.+&quot;)\s?\]?.*\)/gm, /paste\(\s?\[?\s?(&quot;.+&quot;)\s?\]?.*&quot;.*&quot;.*\)/gm]</title>
            <text x="65" y="85"
                font-family="monospace" font-size="13" fill="#222">
                <tspan x="65" y="85">const patterns = [/click\(\s?\[?\s?(&quot;.+&quot;)\s?\]?.*\...</tspan>
            </text>
                   
                   
                </g>
                <g>
                   <rect x="50" y="113.5"
            width="443.4" height="30"
            rx="3" ry="3"
            style="fill:#90caf9; stroke:#444; stroke-width:1" />
                   <title>const patternsForpng = [/click\([^0-9]*(\d+.*png.*&quot;)/gm, /exists\([^0-9]*(\d+.*png.*&quot;)/gm, /find\([^0-9]*(\d+.*png.*&quot;)/gm, /type\([^0-9]*(\d+.*png.*&quot;)/gm, /hover\([^0-9]*(\d+.*png.*&quot;)/gm, /wait\([^0-9]*(\d+.*png.*&quot;)/gm, /waitVanish\([^0-9]*(\d+.*png.*&quot;)/gm, /onAppear\([^0-9]*(\d+.*png.*&quot;)/gm, /onVanish\([^0-9]*(\d+.*png.*&quot;)/gm, /findAll\([^0-9]*(\d+.*png.*&quot;)/gm, /findBest\([^0-9]*(\d+.*png.*&quot;)/gm, /findBestList\([^0-9]*(\d+.*png.*&quot;)/gm, /findAny\([^0-9]*(\d+.*png.*&quot;)/gm, /findAnyList\([^0-9]*(\d+.*png.*&quot;)/gm, /doubleClick\([^0-9]*(\d+.*png.*&quot;)/gm, /rightClick\([^0-9]*(\d+.*png.*&quot;)/gm, /dragDrop\([^0-9]*(\d+.*png.*&quot;)/gm, /drag\([^0-9]*(\d+.*png.*&quot;)/gm, /dropAt\([^0-9]*(\d+.*png.*&quot;)/gm, /paste\([^0-9]*(\d+.*png.*&quot;)/gm]</title>
            <text x="65" y="133.5"
                font-family="monospace" font-size="13" fill="#222">
                <tspan x="65" y="133.5">const patternsForpng = [/click\([^0-9]*(\d+.*png.*...</tspan>
            </text>
                   
                   
                </g>
            <g>
                <rect x="50" y="177"
            width="338.59999999999997" height="30"
            style="fill:#a5d6a7; stroke:#444; stroke-width:1" />
                    
                <line x1="60" y1="177" x2="60" y2="207"
                style="fill:#a5d6a7; stroke:#444; stroke-width:1" />
                <line x1="378.59999999999997" y1="177" x2="378.59999999999997" y2="207"
                style="fill:#a5d6a7; stroke:#444; stroke-width:1" />
             
                <title>parameterParsing = function(codeLine)</title>
            <text x="75" y="197"
                font-family="monospace" font-size="13" fill="#222">
                <tspan x="75" y="197">parameterParsing = function(codeLine)</tspan>
            </text>
                
            </g><g>

            <rect x="117" y="260.5"
            width="200.4" height="30"
            rx="3" ry="3"
            style="fill:#b39ddb; stroke:#444; stroke-width:1" />
            <polygon points="87,275.5 117,245.5 147,275.5 117,305.5"
            style="fill:#b39ddb; stroke:#444; stroke-width:1" />
                
            <title> index in patterns</title>
            <text x="162" y="280.5"
                font-family="monospace" font-size="13" fill="#222">
                <tspan x="162" y="280.5"> index in patterns</tspan>
            </text>
            
            <text x="105.3" y="280.5"
        font-family="monospace" font-size="13" fill="#222">for</text>
        </g>
                <g>
                   <rect x="137" y="315.5"
            width="334.2" height="30"
            rx="3" ry="3"
            style="fill:#90caf9; stroke:#444; stroke-width:1" />
                   <title>result = patterns[index].exec(codeLine)</title>
            <text x="152" y="335.5"
                font-family="monospace" font-size="13" fill="#222">
                <tspan x="152" y="335.5">result = patterns[index].exec(codeLine)</tspan>
            </text>
                   
                   
                </g><g>
            <rect x="167" y="379"
            width="122.4" height="30"
            rx="3" ry="3"
            style="fill:#ce93d8; stroke:#444; stroke-width:1" />                
            <polygon points="137,394 167,364 197,394 167,424"
            style="fill:#ce93d8; stroke:#444; stroke-width:1" />
            <title>(result)</title>
            <text x="212" y="399"
                font-family="monospace" font-size="13" fill="#222">
                <tspan x="212" y="399">(result)</tspan>
            </text>
            
            <text x="159.2" y="399"
        font-family="monospace" font-size="13" fill="#222">if</text> <text x="174.8" y="425.95"
        font-family="monospace" font-size="13" fill="#222">+</text> <text x="293.29999999999995" y="392.05"
        font-family="monospace" font-size="13" fill="#222">-</text>
        </g>
                <g>
                   <rect x="187" y="434"
            width="170.4" height="30"
            rx="3" ry="3"
            style="fill:#90caf9; stroke:#444; stroke-width:1" />
                   <title>result = result[1]</title>
            <text x="202" y="454"
                font-family="monospace" font-size="13" fill="#222">
                <tspan x="202" y="454">result = result[1]</tspan>
            </text>
                   
                   
                </g>
                <g>
                   <rect x="187" y="482.5"
            width="295.2" height="30"
            rx="3" ry="3"
            style="fill:#90caf9; stroke:#444; stroke-width:1" />
                   <title>result = result.replace(/\//g, &apos;&apos;)</title>
            <text x="202" y="502.5"
                font-family="monospace" font-size="13" fill="#222">
                <tspan x="202" y="502.5">result = result.replace(/\//g, &apos;&apos;)</tspan>
            </text>
                   
                   
                </g>
                <g>
                   <rect x="187" y="531"
            width="248.4" height="30"
            rx="3" ry="3"
            style="fill:#90caf9; stroke:#444; stroke-width:1" />
                   <title>result = result.split(&apos;&quot;,&quot;&apos;)</title>
            <text x="202" y="551"
                font-family="monospace" font-size="13" fill="#222">
                <tspan x="202" y="551">result = result.split(&apos;&quot;,&quot;&apos;)</tspan>
            </text>
                   
                   
                </g>
                <g>
                   <rect x="187" y="579.5"
            width="217.2" height="30"
            rx="3" ry="3"
            style="fill:#90caf9; stroke:#444; stroke-width:1" />
                   <title>result = result.map(*())</title>
            <text x="202" y="599.5"
                font-family="monospace" font-size="13" fill="#222">
                <tspan x="202" y="599.5">result = result.map(*())</tspan>
            </text>
                   
                   
                </g>
            <g>
                <rect x="224" y="628"
            width="96.8" height="30"
            style="fill:#a5d6a7; stroke:#444; stroke-width:1" />
                    
                <line x1="234" y1="628" x2="234" y2="658"
                style="fill:#a5d6a7; stroke:#444; stroke-width:1" />
                <line x1="310.8" y1="628" x2="310.8" y2="658"
                style="fill:#a5d6a7; stroke:#444; stroke-width:1" />
             
                <title>(x) =&gt;</title>
            <text x="249" y="648"
                font-family="monospace" font-size="13" fill="#222">
                <tspan x="249" y="648">(x) =&gt;</tspan>
            </text>
                
            </g>
                <g>
                   <rect x="261" y="676.5"
            width="178.2" height="30"
            rx="2" ry="2"
            style="fill:#C5E1A5; stroke:#444; stroke-width:1" />
                   <title>x.replace(/ /g, &apos;&apos;)</title>
            <text x="276" y="696.5"
                font-family="monospace" font-size="13" fill="#222">
                <tspan x="276" y="696.5">x.replace(/ /g, &apos;&apos;)</tspan>
            </text>
                   
                   
                </g>
            <g>
                <rect x="261" y="725"
            width="225" height="30"
            rx="3" ry="3"
            style="fill:#90caf9; stroke:#444; stroke-width:1" />
                
                <line x1="486" y1="735" x2="491" y2="735"
                style="fill:#a5d6a7; stroke:#444; stroke-width:1" />
                
                <line x1="486" y1="745" x2="491" y2="745"
                style="fill:#a5d6a7; stroke:#444; stroke-width:1" />

                <path d="M491, 729 L507, 740 L491, 751 Z" 
        fill="#a5d6a7" stroke="#444" stroke-width="1" />
                             
                <title>return .replace(/&quot;/g, &apos;&apos;)</title>
            <text x="276" y="745"
                font-family="monospace" font-size="13" fill="#222">
                <tspan x="276" y="745">return .replace(/&quot;/g, &apos;&apos;)</tspan>
            </text>
                
            </g>
            <g>
                <rect x="187" y="773.5"
            width="69" height="30"
            rx="2" ry="2"
            style="fill:#90caf9; stroke:#444; stroke-width:1" />
                
                <line x1="256" y1="783.5" x2="261" y2="783.5"
                style="fill:#ce93d8; stroke:#444; stroke-width:1" />
                
                <line x1="256" y1="793.5" x2="261" y2="793.5"
                style="fill:#ce93d8; stroke:#444; stroke-width:1" />

                <path d="M261, 774.5 L277, 788.5 L261, 802.5 Z" 
        fill="#ce93d8" stroke="#444" stroke-width="1" />
                             
                <title>break</title>
            <text x="202" y="793.5"
                font-family="monospace" font-size="13" fill="#222">
                <tspan x="202" y="793.5">break</tspan>
            </text>
                
            </g>
            <g>
                <rect x="567" y="434"
            width="92.4" height="30"
            rx="2" ry="2"
            style="fill:#90caf9; stroke:#444; stroke-width:1" />
                
                <line x1="659.4" y1="444" x2="664.4" y2="444"
                style="fill:#b39ddb; stroke:#444; stroke-width:1" />
                
                <line x1="659.4" y1="454" x2="664.4" y2="454"
                style="fill:#b39ddb; stroke:#444; stroke-width:1" />

                <path d="M664.4, 435 L680.4, 449 L664.4, 463 Z" 
        fill="#b39ddb" stroke="#444" stroke-width="1" />
                             
                <title>continue</title>
            <text x="582" y="454"
                font-family="monospace" font-size="13" fill="#222">
                <tspan x="582" y="454">continue</tspan>
            </text>
                
            </g>
            <g>
                <rect x="87" y="823.5"
            width="131.39999999999998" height="30"
            rx="3" ry="3"
            style="fill:#90caf9; stroke:#444; stroke-width:1" />
                
                <line x1="218.39999999999998" y1="833.5" x2="223.39999999999998" y2="833.5"
                style="fill:#a5d6a7; stroke:#444; stroke-width:1" />
                
                <line x1="218.39999999999998" y1="843.5" x2="223.39999999999998" y2="843.5"
                style="fill:#a5d6a7; stroke:#444; stroke-width:1" />

                <path d="M223.39999999999998, 827.5 L239.39999999999998, 838.5 L223.39999999999998, 849.5 Z" 
        fill="#a5d6a7" stroke="#444" stroke-width="1" />
                             
                <title>return result</title>
            <text x="102" y="843.5"
                font-family="monospace" font-size="13" fill="#222">
                <tspan x="102" y="843.5">return result</tspan>
            </text>
                
            </g>
            <g>
                <rect x="50" y="887"
            width="362" height="30"
            style="fill:#a5d6a7; stroke:#444; stroke-width:1" />
                    
                <line x1="60" y1="887" x2="60" y2="917"
                style="fill:#a5d6a7; stroke:#444; stroke-width:1" />
                <line x1="402" y1="887" x2="402" y2="917"
                style="fill:#a5d6a7; stroke:#444; stroke-width:1" />
             
                <title>parameterPngParsing = function(codeLine)</title>
            <text x="75" y="907"
                font-family="monospace" font-size="13" fill="#222">
                <tspan x="75" y="907">parameterPngParsing = function(codeLine)</tspan>
            </text>
                
            </g><g>

            <rect x="117" y="970.5"
            width="247.2" height="30"
            rx="3" ry="3"
            style="fill:#b39ddb; stroke:#444; stroke-width:1" />
            <polygon points="87,985.5 117,955.5 147,985.5 117,1015.5"
            style="fill:#b39ddb; stroke:#444; stroke-width:1" />
                
            <title> index in patternsForpng</title>
            <text x="162" y="990.5"
                font-family="monospace" font-size="13" fill="#222">
                <tspan x="162" y="990.5"> index in patternsForpng</tspan>
            </text>
            
            <text x="105.3" y="990.5"
        font-family="monospace" font-size="13" fill="#222">for</text>
        </g>
                <g>
                   <rect x="137" y="1025.5"
            width="295.2" height="30"
            rx="2" ry="2"
            style="fill:#C5E1A5; stroke:#444; stroke-width:1" />
                   <title>console.log(patternsForpng[index])</title>
            <text x="152" y="1045.5"
                font-family="monospace" font-size="13" fill="#222">
                <tspan x="152" y="1045.5">console.log(patternsForpng[index])</tspan>
            </text>
                   
                   
                </g>
                <g>
                   <rect x="137" y="1074"
            width="381" height="30"
            rx="3" ry="3"
            style="fill:#90caf9; stroke:#444; stroke-width:1" />
                   <title>result = patternsForpng[index].exec(codeLine)</title>
            <text x="152" y="1094"
                font-family="monospace" font-size="13" fill="#222">
                <tspan x="152" y="1094">result = patternsForpng[index].exec(codeLine)</tspan>
            </text>
                   
                   
                </g>
                <g>
                   <rect x="137" y="1122.5"
            width="178.2" height="30"
            rx="2" ry="2"
            style="fill:#C5E1A5; stroke:#444; stroke-width:1" />
                   <title>console.log(result)</title>
            <text x="152" y="1142.5"
                font-family="monospace" font-size="13" fill="#222">
                <tspan x="152" y="1142.5">console.log(result)</tspan>
            </text>
                   
                   
                </g><g>
            <rect x="167" y="1186"
            width="122.4" height="30"
            rx="3" ry="3"
            style="fill:#ce93d8; stroke:#444; stroke-width:1" />                
            <polygon points="137,1201 167,1171 197,1201 167,1231"
            style="fill:#ce93d8; stroke:#444; stroke-width:1" />
            <title>(result)</title>
            <text x="212" y="1206"
                font-family="monospace" font-size="13" fill="#222">
                <tspan x="212" y="1206">(result)</tspan>
            </text>
            
            <text x="159.2" y="1206"
        font-family="monospace" font-size="13" fill="#222">if</text> <text x="174.8" y="1232.95"
        font-family="monospace" font-size="13" fill="#222">+</text> <text x="293.29999999999995" y="1199.05"
        font-family="monospace" font-size="13" fill="#222">-</text>
        </g>
                <g>
                   <rect x="187" y="1241"
            width="170.4" height="30"
            rx="3" ry="3"
            style="fill:#90caf9; stroke:#444; stroke-width:1" />
                   <title>result = result[1]</title>
            <text x="202" y="1261"
                font-family="monospace" font-size="13" fill="#222">
                <tspan x="202" y="1261">result = result[1]</tspan>
            </text>
                   
                   
                </g>
                <g>
                   <rect x="187" y="1289.5"
            width="178.2" height="30"
            rx="2" ry="2"
            style="fill:#C5E1A5; stroke:#444; stroke-width:1" />
                   <title>console.log(result)</title>
            <text x="202" y="1309.5"
                font-family="monospace" font-size="13" fill="#222">
                <tspan x="202" y="1309.5">console.log(result)</tspan>
            </text>
                   
                   
                </g>
                <g>
                   <rect x="187" y="1338"
            width="256.2" height="30"
            rx="3" ry="3"
            style="fill:#90caf9; stroke:#444; stroke-width:1" />
                   <title>var pattern = &apos;(\\d+\.png)|.&apos;</title>
            <text x="202" y="1358"
                font-family="monospace" font-size="13" fill="#222">
                <tspan x="202" y="1358">var pattern = &apos;(\\d+\.png)|.&apos;</tspan>
            </text>
                   
                   
                </g>
                <g>
                   <rect x="187" y="1386.5"
            width="443.4" height="30"
            rx="3" ry="3"
            style="fill:#90caf9; stroke:#444; stroke-width:1" />
                   <title>result = result.replace(new RegExp(pattern, &apos;gi&apos;), *())</title>
            <text x="202" y="1406.5"
                font-family="monospace" font-size="13" fill="#222">
                <tspan x="202" y="1406.5">result = result.replace(new RegExp(pattern, &apos;gi&apos;),...</tspan>
            </text>
                   
                   
                </g>
                <g>
                   <rect x="224" y="1435"
            width="225" height="30"
            rx="3" ry="3"
            style="fill:#90caf9; stroke:#444; stroke-width:1" />
                   <title>new RegExp(pattern, &apos;gi&apos;)</title>
            <text x="239" y="1455"
                font-family="monospace" font-size="13" fill="#222">
                <tspan x="239" y="1455">new RegExp(pattern, &apos;gi&apos;)</tspan>
            </text>
                   
                   
                </g>
            <g>
                <rect x="224" y="1483.5"
            width="135.8" height="30"
            style="fill:#a5d6a7; stroke:#444; stroke-width:1" />
                    
                <line x1="234" y1="1483.5" x2="234" y2="1513.5"
                style="fill:#a5d6a7; stroke:#444; stroke-width:1" />
                <line x1="349.8" y1="1483.5" x2="349.8" y2="1513.5"
                style="fill:#a5d6a7; stroke:#444; stroke-width:1" />
             
                <title>function(c)</title>
            <text x="249" y="1503.5"
                font-family="monospace" font-size="13" fill="#222">
                <tspan x="249" y="1503.5">function(c)</tspan>
            </text>
                
            </g>
                <g>
                   <rect x="261" y="1532"
            width="217.2" height="30"
            rx="2" ry="2"
            style="fill:#C5E1A5; stroke:#444; stroke-width:1" />
                   <title>console.log(c.slice(-4))</title>
            <text x="276" y="1552"
                font-family="monospace" font-size="13" fill="#222">
                <tspan x="276" y="1552">console.log(c.slice(-4))</tspan>
            </text>
                   
                   
                </g>
            <g>
                <rect x="261" y="1580.5"
            width="76.8" height="30"
            rx="3" ry="3"
            style="fill:#90caf9; stroke:#444; stroke-width:1" />
                
                <line x1="337.8" y1="1590.5" x2="342.8" y2="1590.5"
                style="fill:#a5d6a7; stroke:#444; stroke-width:1" />
                
                <line x1="337.8" y1="1600.5" x2="342.8" y2="1600.5"
                style="fill:#a5d6a7; stroke:#444; stroke-width:1" />

                <path d="M342.8, 1584.5 L358.8, 1595.5 L342.8, 1606.5 Z" 
        fill="#a5d6a7" stroke="#444" stroke-width="1" />
                             
                <title>return</title>
            <text x="276" y="1600.5"
                font-family="monospace" font-size="13" fill="#222">
                <tspan x="276" y="1600.5">return</tspan>
            </text>
                
            </g><g>
            <rect x="328" y="1644"
            width="239.39999999999998" height="30"
            rx="3" ry="3"
            style="fill:#ce93d8; stroke:#444; stroke-width:1" />                
            <polygon points="298,1659 328,1629 358,1659 328,1689"
            style="fill:#ce93d8; stroke:#444; stroke-width:1" />
            <title>(c.slice(-4) == &apos;.png&apos;)</title>
            <text x="373" y="1664"
                font-family="monospace" font-size="13" fill="#222">
                <tspan x="373" y="1664">(c.slice(-4) == &apos;.png&apos;)</tspan>
            </text>
            
            <text x="324.1" y="1664"
        font-family="monospace" font-size="13" fill="#222">?</text> <text x="335.8" y="1690.95"
        font-family="monospace" font-size="13" fill="#222">+</text> <text x="571.3" y="1657.05"
        font-family="monospace" font-size="13" fill="#222">-</text>
        </g>
                <g>
                   <rect x="348" y="1699"
            width="84.6" height="30"
            rx="3" ry="3"
            style="fill:#90caf9; stroke:#444; stroke-width:1" />
                   <title>c + &apos;,&apos;</title>
            <text x="363" y="1719"
                font-family="monospace" font-size="13" fill="#222">
                <tspan x="363" y="1719">c + &apos;,&apos;</tspan>
            </text>
                   
                   
                </g>
                <g>
                   <rect x="627.4" y="1699"
            width="45.6" height="30"
            rx="3" ry="3"
            style="fill:#90caf9; stroke:#444; stroke-width:1" />
                   <title>&apos;&apos;</title>
            <text x="642.4" y="1719"
                font-family="monospace" font-size="13" fill="#222">
                <tspan x="642.4" y="1719">&apos;&apos;</tspan>
            </text>
                   
                   
                </g>
                <g>
                   <rect x="187" y="1749"
            width="217.2" height="30"
            rx="3" ry="3"
            style="fill:#90caf9; stroke:#444; stroke-width:1" />
                   <title>result = [object Object]</title>
            <text x="202" y="1769"
                font-family="monospace" font-size="13" fill="#222">
                <tspan x="202" y="1769">result = [object Object]</tspan>
            </text>
                   
                   
                </g>
                <g>
                   <rect x="224" y="1797.5"
            width="162.6" height="30"
            rx="2" ry="2"
            style="fill:#C5E1A5; stroke:#444; stroke-width:1" />
                   <title>result.split(&apos;,&apos;)</title>
            <text x="239" y="1817.5"
                font-family="monospace" font-size="13" fill="#222">
                <tspan x="239" y="1817.5">result.split(&apos;,&apos;)</tspan>
            </text>
                   
                   
                </g>
            <g>
                <rect x="187" y="1846"
            width="69" height="30"
            rx="2" ry="2"
            style="fill:#90caf9; stroke:#444; stroke-width:1" />
                
                <line x1="256" y1="1856" x2="261" y2="1856"
                style="fill:#ce93d8; stroke:#444; stroke-width:1" />
                
                <line x1="256" y1="1866" x2="261" y2="1866"
                style="fill:#ce93d8; stroke:#444; stroke-width:1" />

                <path d="M261, 1847 L277, 1861 L261, 1875 Z" 
        fill="#ce93d8" stroke="#444" stroke-width="1" />
                             
                <title>break</title>
            <text x="202" y="1866"
                font-family="monospace" font-size="13" fill="#222">
                <tspan x="202" y="1866">break</tspan>
            </text>
                
            </g>
            <g>
                <rect x="733" y="1241"
            width="92.4" height="30"
            rx="2" ry="2"
            style="fill:#90caf9; stroke:#444; stroke-width:1" />
                
                <line x1="825.4" y1="1251" x2="830.4" y2="1251"
                style="fill:#b39ddb; stroke:#444; stroke-width:1" />
                
                <line x1="825.4" y1="1261" x2="830.4" y2="1261"
                style="fill:#b39ddb; stroke:#444; stroke-width:1" />

                <path d="M830.4, 1242 L846.4, 1256 L830.4, 1270 Z" 
        fill="#b39ddb" stroke="#444" stroke-width="1" />
                             
                <title>continue</title>
            <text x="748" y="1261"
                font-family="monospace" font-size="13" fill="#222">
                <tspan x="748" y="1261">continue</tspan>
            </text>
                
            </g>
            <g>
                <rect x="87" y="1896"
            width="131.39999999999998" height="30"
            rx="3" ry="3"
            style="fill:#90caf9; stroke:#444; stroke-width:1" />
                
                <line x1="218.39999999999998" y1="1906" x2="223.39999999999998" y2="1906"
                style="fill:#a5d6a7; stroke:#444; stroke-width:1" />
                
                <line x1="218.39999999999998" y1="1916" x2="223.39999999999998" y2="1916"
                style="fill:#a5d6a7; stroke:#444; stroke-width:1" />

                <path d="M223.39999999999998, 1900 L239.39999999999998, 1911 L223.39999999999998, 1922 Z" 
        fill="#a5d6a7" stroke="#444" stroke-width="1" />
                             
                <title>return result</title>
            <text x="102" y="1916"
                font-family="monospace" font-size="13" fill="#222">
                <tspan x="102" y="1916">return result</tspan>
            </text>
                
            </g>
            <g>
               <rect x="25" y="13.75"
            width="216.6" height="24"
            style="fill:#fff59d; stroke:#444; stroke-width:1" />
               <circle cx="25" cy="25" r="15"
        style="fill:#fff59d; stroke:#444; stroke-width:1" />
               <title>Program: source module</title>
            <text x="55" y="30"
                font-family="monospace" font-size="13" fill="#222">
                <tspan x="55" y="30">Program: source module</tspan>
            </text>
            </g>
            <g>
               <path d="M25, 40 L25 76 Q25 80
                29 80
                L42 80 "
        style="fill:none; stroke:#444; stroke-width:1" />
               <path d="M42, 77 L50, 80 L42, 83 Z" 
        fill="#333" />
            </g>
            <g>
               <path d="M25, 40 L25 124.5 Q25 128.5
                29 128.5
                L42 128.5 "
        style="fill:none; stroke:#444; stroke-width:1" />
               <path d="M42, 125.5 L50, 128.5 L42, 131.5 Z" 
        fill="#333" />
            </g>
            <g>
               <path d="M25, 40 L25 188 Q25 192
                29 192
                L42 192 "
        style="fill:none; stroke:#444; stroke-width:1" />
               <path d="M42, 189 L50, 192 L42, 195 Z" 
        fill="#333" />
            </g>
            <g>
               <path d="M68.5, 207 L68.5 271.5 Q68.5 275.5
                72.5 275.5
                L79 275.5 "
        style="fill:none; stroke:#444; stroke-width:1" />
               <path d="M79, 272.5 L87, 275.5 L79, 278.5 Z" 
        fill="#333" />
            </g>
            <g>
               <path d="M117, 305.5 L117 326.5 Q117 330.5
                121 330.5
                L129 330.5 "
        style="fill:none; stroke:#444; stroke-width:1" />
               <path d="M129, 327.5 L137, 330.5 L129, 333.5 Z" 
        fill="#333" />
            </g>
            <g>
               <path d="M117, 305.5 L117 390 Q117 394
                121 394
                L129 394 "
        style="fill:none; stroke:#444; stroke-width:1" />
               <path d="M129, 391 L137, 394 L129, 397 Z" 
        fill="#333" />
            </g>
            <g>
               <path d="M167, 424 L167 445 Q167 449
                171 449
                L179 449 "
        style="fill:none; stroke:#444; stroke-width:1" />
               <path d="M179, 446 L187, 449 L179, 452 Z" 
        fill="#333" />
            </g>
            <g>
               <path d="M167, 424 L167 493.5 Q167 497.5
                171 497.5
                L179 497.5 "
        style="fill:none; stroke:#444; stroke-width:1" />
               <path d="M179, 494.5 L187, 497.5 L179, 500.5 Z" 
        fill="#333" />
            </g>
            <g>
               <path d="M167, 424 L167 542 Q167 546
                171 546
                L179 546 "
        style="fill:none; stroke:#444; stroke-width:1" />
               <path d="M179, 543 L187, 546 L179, 549 Z" 
        fill="#333" />
            </g>
            <g>
               <path d="M167, 424 L167 590.5 Q167 594.5
                171 594.5
                L179 594.5 "
        style="fill:none; stroke:#444; stroke-width:1" />
               <path d="M179, 591.5 L187, 594.5 L179, 597.5 Z" 
        fill="#333" />
            </g>
            <g>
               <path d="M205.5, 609.5 L205.5 639 Q205.5 643
                209.5 643
                L224 643 "
        style="fill:none; stroke:#444; stroke-width:1" />
               false
            </g>
            <g>
               <path d="M242.5, 658 L242.5 687.5 Q242.5 691.5
                246.5 691.5
                L253 691.5 "
        style="fill:none; stroke:#444; stroke-width:1" />
               <path d="M253, 688.5 L261, 691.5 L253, 694.5 Z" 
        fill="#333" />
            </g>
            <g>
               <path d="M242.5, 658 L242.5 736 Q242.5 740
                246.5 740
                L253 740 "
        style="fill:none; stroke:#444; stroke-width:1" />
               <path d="M253, 737 L261, 740 L253, 743 Z" 
        fill="#333" />
            </g>
            <g>
               <path d="M167, 424 L167 784.5 Q167 788.5
                171 788.5
                L179 788.5 "
        style="fill:none; stroke:#444; stroke-width:1" />
               <path d="M179, 785.5 L187, 788.5 L179, 791.5 Z" 
        fill="#333" />
            </g>
            <g>
               <path d="M289.4, 394 L543 394  Q547 394
                547 398
                L547 441 Q547 449
                551 449
                L559 449 "
        style="fill:none; stroke:#444; stroke-width:1" />
               <path d="M559, 446 L567, 449 L559, 452 Z" 
        fill="#333" />
            </g>
            <g>
               <path d="M680.4, 449 L696.4 449  Q700.4 449
                700.4 445
                L700.4 233.5 Q700.4 225.5
                696.4 225.5
                L125 225.5  Q117 225.5
                117 229.5
                L117 237.5"
        style="fill:none; stroke:#444; stroke-width:1" />
               <path d="M114, 237.5 L117, 245.5 L120, 237.5 Z" 
        fill="#333" />
            </g>
            <g>
               <path d="M68.5, 207 L68.5 834.5 Q68.5 838.5
                72.5 838.5
                L79 838.5 "
        style="fill:none; stroke:#444; stroke-width:1" />
               <path d="M79, 835.5 L87, 838.5 L79, 841.5 Z" 
        fill="#333" />
            </g>
            <g>
               <path d="M25, 40 L25 898 Q25 902
                29 902
                L42 902 "
        style="fill:none; stroke:#444; stroke-width:1" />
               <path d="M42, 899 L50, 902 L42, 905 Z" 
        fill="#333" />
            </g>
            <g>
               <path d="M68.5, 917 L68.5 981.5 Q68.5 985.5
                72.5 985.5
                L79 985.5 "
        style="fill:none; stroke:#444; stroke-width:1" />
               <path d="M79, 982.5 L87, 985.5 L79, 988.5 Z" 
        fill="#333" />
            </g>
            <g>
               <path d="M117, 1015.5 L117 1036.5 Q117 1040.5
                121 1040.5
                L129 1040.5 "
        style="fill:none; stroke:#444; stroke-width:1" />
               <path d="M129, 1037.5 L137, 1040.5 L129, 1043.5 Z" 
        fill="#333" />
            </g>
            <g>
               <path d="M117, 1015.5 L117 1085 Q117 1089
                121 1089
                L129 1089 "
        style="fill:none; stroke:#444; stroke-width:1" />
               <path d="M129, 1086 L137, 1089 L129, 1092 Z" 
        fill="#333" />
            </g>
            <g>
               <path d="M117, 1015.5 L117 1133.5 Q117 1137.5
                121 1137.5
                L129 1137.5 "
        style="fill:none; stroke:#444; stroke-width:1" />
               <path d="M129, 1134.5 L137, 1137.5 L129, 1140.5 Z" 
        fill="#333" />
            </g>
            <g>
               <path d="M117, 1015.5 L117 1197 Q117 1201
                121 1201
                L129 1201 "
        style="fill:none; stroke:#444; stroke-width:1" />
               <path d="M129, 1198 L137, 1201 L129, 1204 Z" 
        fill="#333" />
            </g>
            <g>
               <path d="M167, 1231 L167 1252 Q167 1256
                171 1256
                L179 1256 "
        style="fill:none; stroke:#444; stroke-width:1" />
               <path d="M179, 1253 L187, 1256 L179, 1259 Z" 
        fill="#333" />
            </g>
            <g>
               <path d="M167, 1231 L167 1300.5 Q167 1304.5
                171 1304.5
                L179 1304.5 "
        style="fill:none; stroke:#444; stroke-width:1" />
               <path d="M179, 1301.5 L187, 1304.5 L179, 1307.5 Z" 
        fill="#333" />
            </g>
            <g>
               <path d="M167, 1231 L167 1349 Q167 1353
                171 1353
                L179 1353 "
        style="fill:none; stroke:#444; stroke-width:1" />
               <path d="M179, 1350 L187, 1353 L179, 1356 Z" 
        fill="#333" />
            </g>
            <g>
               <path d="M167, 1231 L167 1397.5 Q167 1401.5
                171 1401.5
                L179 1401.5 "
        style="fill:none; stroke:#444; stroke-width:1" />
               <path d="M179, 1398.5 L187, 1401.5 L179, 1404.5 Z" 
        fill="#333" />
            </g>
            <g>
               <path d="M205.5, 1416.5 L205.5 1446 Q205.5 1450
                209.5 1450
                L216 1450 "
        style="fill:none; stroke:#444; stroke-width:1" />
               <path d="M216, 1447 L224, 1450 L216, 1453 Z" 
        fill="#333" />
            </g>
            <g>
               <path d="M205.5, 1416.5 L205.5 1494.5 Q205.5 1498.5
                209.5 1498.5
                L224 1498.5 "
        style="fill:none; stroke:#444; stroke-width:1" />
               false
            </g>
            <g>
               <path d="M242.5, 1513.5 L242.5 1543 Q242.5 1547
                246.5 1547
                L253 1547 "
        style="fill:none; stroke:#444; stroke-width:1" />
               <path d="M253, 1544 L261, 1547 L253, 1550 Z" 
        fill="#333" />
            </g>
            <g>
               <path d="M242.5, 1513.5 L242.5 1591.5 Q242.5 1595.5
                246.5 1595.5
                L253 1595.5 "
        style="fill:none; stroke:#444; stroke-width:1" />
               <path d="M253, 1592.5 L261, 1595.5 L253, 1598.5 Z" 
        fill="#333" />
            </g>
            <g>
               <path d="M279.5, 1610.5 L279.5 1655 Q279.5 1659
                283.5 1659
                L290 1659 "
        style="fill:none; stroke:#444; stroke-width:1" />
               <path d="M290, 1656 L298, 1659 L290, 1662 Z" 
        fill="#333" />
            </g>
            <g>
               <path d="M328, 1689 L328 1710 Q328 1714
                332 1714
                L340 1714 "
        style="fill:none; stroke:#444; stroke-width:1" />
               <path d="M340, 1711 L348, 1714 L340, 1717 Z" 
        fill="#333" />
            </g>
            <g>
               <path d="M567.4, 1659 L603.4 1659  Q607.4 1659
                607.4 1663
                L607.4 1706 Q607.4 1714
                611.4 1714
                L619.4 1714 "
        style="fill:none; stroke:#444; stroke-width:1" />
               <path d="M619.4, 1711 L627.4, 1714 L619.4, 1717 Z" 
        fill="#333" />
            </g>
            <g>
               <path d="M167, 1231 L167 1760 Q167 1764
                171 1764
                L179 1764 "
        style="fill:none; stroke:#444; stroke-width:1" />
               <path d="M179, 1761 L187, 1764 L179, 1767 Z" 
        fill="#333" />
            </g>
            <g>
               <path d="M205.5, 1779 L205.5 1808.5 Q205.5 1812.5
                209.5 1812.5
                L216 1812.5 "
        style="fill:none; stroke:#444; stroke-width:1" />
               <path d="M216, 1809.5 L224, 1812.5 L216, 1815.5 Z" 
        fill="#333" />
            </g>
            <g>
               <path d="M167, 1231 L167 1857 Q167 1861
                171 1861
                L179 1861 "
        style="fill:none; stroke:#444; stroke-width:1" />
               <path d="M179, 1858 L187, 1861 L179, 1864 Z" 
        fill="#333" />
            </g>
            <g>
               <path d="M289.4, 1201 L709 1201  Q713 1201
                713 1205
                L713 1248 Q713 1256
                717 1256
                L725 1256 "
        style="fill:none; stroke:#444; stroke-width:1" />
               <path d="M725, 1253 L733, 1256 L725, 1259 Z" 
        fill="#333" />
            </g>
            <g>
               <path d="M846.4, 1256 L862.4 1256  Q866.4 1256
                866.4 1252
                L866.4 943.5 Q866.4 935.5
                862.4 935.5
                L125 935.5  Q117 935.5
                117 939.5
                L117 947.5"
        style="fill:none; stroke:#444; stroke-width:1" />
               <path d="M114, 947.5 L117, 955.5 L120, 947.5 Z" 
        fill="#333" />
            </g>
            <g>
               <path d="M68.5, 917 L68.5 1907 Q68.5 1911
                72.5 1911
                L79 1911 "
        style="fill:none; stroke:#444; stroke-width:1" />
               <path d="M79, 1908 L87, 1911 L79, 1914 Z" 
        fill="#333" />
            </g>
            </svg>